<svg width="100" height="100" viewBox="0 0 100 100" fill="none" xmlns="http://www.w3.org/2000/svg">
  <rect x="24.75" y="21.75" width="7.5" height="7.5" rx="3.75" fill="#FFFFFF" stroke="#fab005" stroke-width="0.5" />
  <rect x="67.75" y="21.75" width="7.5" height="7.5" rx="3.75" fill="#FFFFFF" stroke="#fab005" stroke-width="0.5" />
  <rect x="14.75" y="36.75" width="10.5" height="10.5" rx="5.25" fill="#FFFFFF" stroke="#fab005" stroke-width="0.5" />
  <rect x="74.75" y="36.75" width="10.5" height="10.5" rx="5.25" fill="#FFFFFF" stroke="#fab005" stroke-width="0.5" />
  <path
    d="M65.0897 63.5103C65.0897 63.5103 71.6105 65.8228 76.6105 63.5103C78.5765 62.5341 80.2508 61.0575 81.4649 59.2289C82.6791 57.4004 83.3904 55.2843 83.5272 53.0936C83.9022 49.7186 88.7147 48.2811 90.4439 53.0936C91.5689 56.6696 91.5028 60.5142 90.2556 64.0494C89.0083 67.5846 86.6472 70.6195 83.5272 72.6978C79.7019 74.9164 75.3977 76.1791 70.98 76.3786C66.5624 76.5781 62.1619 75.7085 58.1522 73.8436C52.0064 70.7186 65.0897 63.5103 65.0897 63.5103ZM34.2564 63.5103C34.2564 63.5103 27.7147 65.7603 22.6314 63.5103C20.6654 62.5341 18.9911 61.0575 17.777 59.2289C16.5628 57.4004 15.8515 55.2843 15.7147 53.0936C15.3397 49.7186 10.5272 48.2811 8.79803 53.0936C7.67297 56.6696 7.73905 60.5142 8.98634 64.0494C10.2336 67.5846 12.5947 70.6195 15.7147 72.6978C19.54 74.9164 23.8442 76.1791 28.2619 76.3786C32.6795 76.5781 37.08 75.7085 41.0897 73.8436C47.3189 70.7186 34.2564 63.5103 34.2564 63.5103Z"
    fill="#FFFFFF" stroke="#fab005" stroke-width="0.5" />
  <path
    d="M41.621 77.1512C41.621 77.1512 39.6418 86.0054 26.5793 86.0054C13.5168 86.0054 8.37099 77.4429 8.01682 72.7346C7.66266 68.0262 12.9752 64.5471 16.8502 69.1929C22.4543 75.9012 27.0168 75.0887 30.121 70.9637C33.2252 66.8387 41.621 77.1512 41.621 77.1512Z"
    fill="#FFFFFF" stroke="#fab005" stroke-width="0.5" />
  <path
    d="M58 75.9021C58 75.9021 60.0641 83.6667 72.9029 83.6667C85.7417 83.6667 90.9433 76.1578 91.3148 72.0289C91.6864 67.9 86.3816 64.8489 82.5423 68.9231C76.9899 74.8059 72.4695 74.0934 69.3939 70.476C66.3184 66.8586 58 75.9021 58 75.9021Z"
    fill="#FFFFFF" stroke="#fab005" stroke-width="0.5" />
  <rect x="24.75" y="32.75" width="50.5" height="50.5" rx="25.25" fill="#FFFFFF" stroke="#fab005" stroke-width="0.5" />
  <rect x="39" y="60" width="6" height="6" rx="3" fill="#fab005" />
  <rect x="55" y="60" width="6" height="6" rx="3" fill="#fab005" />
</svg>